<svg xmlns="http://www.w3.org/2000/svg" width="32" height="32" viewBox="0 0 32 32"><title>bxs brain</title><g fill="#000000" class="nc-icon-wrapper"><g fill="#000000"><path transform="scale(1,-1) translate(0,-30)" d="M 4.39865625 6.93865625 c 0.576 -1.776 2.32665625 -2.90934375 4.19465625 -2.90934375 h 0.07334375 c 0.35796875 -1.7025 1.847125 -2.962375 3.630625 -2.96265625 h 0.00003125 c 0.60934375 0 1.17865625 0.15334375 1.68265625 0.41734375 0.412375 0.22934375 0.68678125 0.66253125 0.68678125 1.15978125 0 0.00571875 -0.00003125 0.01140625 -0.00009375 0.01709375 v -0.000875 23.704 c 0.00003125 0.00346875 0.0000625 0.00759375 0.0000625 0.01171875 0 0.63403125 -0.443875 1.16440625 -1.03784375 1.29728125 l -0.008875 0.00165625 c -0.177625 0.03615625 -0.3818125 0.05684375 -0.5908125 0.05684375 -0.50334375 0 -0.978625 -0.12 -1.39884375 -0.33296875 l 0.0176875 0.008125 c -0.992 -0.47465625 -1.57334375 -1.53465625 -1.57334375 -2.63734375 v -0.07334375 c -0.2226875 0.0475625 -0.47853125 0.0748125 -0.74071875 0.0748125 -2.04565625 0 -3.704 -1.65834375 -3.704 -3.704 0 -0.86421875 0.29596875 -1.65928125 0.7920625 -2.28940625 l -0.006 0.00790625 c -2.13684375 -0.34409375 -3.74934375 -2.175 -3.74934375 -4.38253125 0 -0.00096875 0 -0.00196875 0 -0.0029375 v 0.00015625 c 0 -1.57065625 0.81465625 -2.948 2.044 -3.74934375 -0.57334375 -1.028 -0.76134375 -2.328 -0.312 -3.712 z M 25.584 18.78534375 c 0.49009375 0.62221875 0.7860625 1.41728125 0.7860625 2.2815 0 2.04565625 -1.65834375 3.704 -3.704 3.704 -0.2621875 0 -0.51803125 -0.02725 -0.76484375 -0.0790625 l 0.024125 0.00425 v 0.07334375 c 0 1.10134375 -0.58265625 2.16265625 -1.57465625 2.63734375 -0.4021875 0.204875 -0.87709375 0.32490625 -1.3800625 0.32490625 -0.2089375 0 -0.4130625 -0.02071875 -0.610375 -0.06021875 l 0.01975 0.0033125 c -0.60290625 -0.13509375 -1.04671875 -0.66571875 -1.04671875 -1.30003125 0 -0.00375 0 -0.0075 0.00003125 -0.01121875 v 0.0005625 -23.70265625 c 0 -0.48665625 0.256 -0.94934375 0.688 -1.176 0.504 -0.26534375 1.072 -0.41865625 1.68134375 -0.41865625 1.783875 0.00040625 3.27325 1.2609375 3.62640625 2.93984375 l 0.00425 0.02415625 h 0.07465625 c 1.86665625 0 3.61865625 1.13334375 4.19465625 2.90934375 0.44934375 1.384 0.26134375 2.684 -0.312 3.712 1.23575 0.80725 2.0413125 2.18340625 2.04265625 3.7478125 v 0.0001875 c 0 0.00084375 0 0.0018125 0 0.0028125 0 2.20753125 -1.6125 4.0384375 -3.723875 4.37915625 l -0.0254375 0.003375 z"></path></g></g></svg>